<svg width="400" height="351" viewBox="0 0 400 351" xmlns="http://www.w3.org/2000/svg"><title>chromecast icon</title><g fill="#5BA7D5" fill-rule="evenodd"><path d="M91.153 350.937c-8.777 0-15.89-7.114-15.89-15.89 0-15.857-6.176-30.764-17.39-41.978-11.214-11.21-26.12-17.386-41.977-17.386C7.114 275.684 0 268.57 0 259.794c0-8.777 7.114-15.89 15.89-15.89 24.343 0 47.233 9.48 64.45 26.692 17.22 17.218 26.7 40.108 26.7 64.455 0 8.774-7.115 15.888-15.887 15.888z"/><path d="M166.405 350.937c-8.777 0-15.89-7.114-15.89-15.89 0-35.96-14.004-69.767-39.43-95.194-25.428-25.427-59.236-39.43-95.194-39.43-8.775 0-15.89-7.114-15.89-15.89 0-8.778 7.115-15.892 15.89-15.892 44.45 0 86.237 17.31 117.673 48.74 31.43 31.43 48.74 73.218 48.74 117.667-.006 8.777-7.12 15.89-15.897 15.89zm-146.44-.06c-5.244 0-10.33-2.145-14.062-5.838-3.692-3.7-5.797-8.825-5.797-14.03 0-5.245 2.105-10.37 5.797-14.06 3.733-3.695 8.818-5.84 14.063-5.84 5.205 0 10.33 2.145 14.022 5.84 3.693 3.69 5.838 8.815 5.838 14.06 0 5.205-2.145 10.33-5.838 14.03-3.692 3.69-8.817 5.836-14.022 5.836z"/><path d="M385.942 310.53h-177.48c-7.764 0-14.058-6.292-14.058-14.056 0-7.765 6.294-14.058 14.058-14.058h163.422V28.87H28.116v77.315c0 7.764-6.294 14.058-14.058 14.058C6.293 120.243 0 113.95 0 106.185V14.81C0 7.048 6.293.755 14.058.755h371.884C393.707.755 400 7.047 400 14.81v281.67c0 7.76-6.293 14.053-14.058 14.053z"/></g></svg>